<svg width="25" height="26" viewBox="0 0 25 26" fill="none" xmlns="http://www.w3.org/2000/svg">
<path fill-rule="evenodd" clip-rule="evenodd" d="M8.09386 3.50615L8.09346 3.50634C8.09315 3.50648 8.09307 3.50688 8.09331 3.50713C8.09372 3.50753 8.09437 3.50703 8.09408 3.50654L8.09386 3.50615ZM12.3715 2.58151C10.8436 2.58151 9.4 2.91575 8.09386 3.50615C7.53273 2.5351 7.91964 1.27686 8.99837 0.970035C10.0703 0.665132 11.2003 0.5 12.3715 0.5C13.8743 0.5 15.311 0.771867 16.6435 1.26049C17.2193 1.47164 17.4309 2.15552 17.124 2.68652C16.8549 3.15229 16.2785 3.33309 15.7703 3.15669C14.7056 2.7871 13.5642 2.58151 12.3715 2.58151ZM1.00656 11.9577C1.54457 11.9577 1.98922 11.5481 2.09115 11.0199C2.54097 8.68862 3.77147 6.63745 5.49477 5.14051C5.90229 4.78652 6.03429 4.19485 5.76466 3.72722C5.45674 3.19318 4.75474 3.03428 4.28289 3.43098C2.08121 5.28201 0.530707 7.87616 0.0144427 10.8304C-0.0909253 11.4333 0.394474 11.9577 1.00656 11.9577ZM11.3307 5.94027C11.3307 6.4603 10.951 6.89477 10.4557 7.05301C9.30841 7.41951 8.30623 8.10504 7.55691 9.01146C7.55636 9.01213 7.55526 9.01174 7.55526 9.01087C7.55526 9.01054 7.55508 9.01023 7.5548 9.01006L6.94282 8.6572C6.30428 8.28903 6.1307 7.43696 6.66736 6.93171C7.63768 6.0182 8.82733 5.33542 10.1494 4.97023C10.7665 4.7998 11.3307 5.30014 11.3307 5.94027ZM17.9609 8.56771C17.5142 8.82528 16.953 8.71578 16.5704 8.37001C15.9188 7.78103 15.1423 7.32779 14.2857 7.05331C13.7913 6.89486 13.4123 6.46103 13.4123 5.94183C13.4123 5.30255 13.9758 4.80287 14.592 4.97303C15.9757 5.35513 17.2137 6.08536 18.2087 7.06403C18.6638 7.51171 18.5139 8.24882 17.9609 8.56771ZM12.3712 8.83236C10.0709 8.83236 8.20509 10.6982 8.20509 12.9985C8.20509 15.2988 10.0709 17.1647 12.3712 17.1647C14.6715 17.1647 16.5374 15.2988 16.5374 12.9985C16.5374 10.6982 14.6715 8.83236 12.3712 8.83236ZM12.3712 15.0831C11.2211 15.0831 10.2866 14.1518 10.2866 12.9985C10.2866 11.8452 11.2211 10.9139 12.3712 10.9139C13.5214 10.9139 14.4559 11.8484 14.4559 12.9985C14.4559 14.1486 13.5214 15.0831 12.3712 15.0831ZM17.1877 16.986C17.1877 16.9851 17.1867 16.9847 17.1861 16.9854C16.437 17.8916 15.4331 18.577 14.2871 18.9435C13.7918 19.1019 13.4123 19.5364 13.4123 20.0564C13.4123 20.6966 13.9766 21.1971 14.5937 21.0265C15.9153 20.6613 17.1038 19.9785 18.0746 19.065C18.6114 18.5598 18.4383 17.7076 17.7997 17.3394L17.1882 16.9868C17.1879 16.9866 17.1877 16.9863 17.1877 16.986ZM18.6221 12.9983C18.6221 13.4477 18.5726 13.8852 18.4805 14.307C18.3693 14.8169 18.5564 15.3646 19.0084 15.6254C19.565 15.9464 20.2829 15.7067 20.4432 15.0845C20.6153 14.4168 20.7067 13.7165 20.7067 12.9952C20.7067 12.2737 20.6152 11.5744 20.443 10.9067C20.2826 10.2844 19.5646 10.0443 19.0079 10.3653C18.5561 10.6259 18.3692 11.1733 18.4804 11.6828C18.5725 12.1049 18.6221 12.5426 18.6221 12.9921V12.9983ZM5.73598 10.3718C6.18697 10.6323 6.3735 11.179 6.26229 11.6879C6.16996 12.1103 6.12031 12.5484 6.12031 12.9984V13.0047C6.12031 13.4547 6.16996 13.8928 6.26229 14.3152C6.3735 14.8241 6.18697 15.3708 5.73598 15.6313C5.18013 15.9525 4.46275 15.7132 4.3025 15.0915C4.13033 14.4237 4.0388 13.7231 4.0388 13.0015C4.0388 12.28 4.13033 11.5794 4.3025 10.9115C4.46275 10.2899 5.18013 10.0506 5.73598 10.3718ZM11.3307 20.0564C11.3307 19.5364 10.9511 19.102 10.456 18.9432C9.60063 18.6689 8.82502 18.2163 8.17405 17.6282C7.79068 17.2819 7.2282 17.1725 6.78097 17.4312C6.22828 17.7508 6.07888 18.4879 6.53403 18.9357C7.52865 19.9141 8.76612 20.6442 10.1493 21.0265C10.7664 21.1971 11.3307 20.6966 11.3307 20.0564ZM18.5061 4.54763C18.5046 4.5491 18.5048 4.55154 18.5065 4.55276C20.619 6.07611 22.1398 8.3662 22.6514 11.0168C22.7533 11.545 23.198 11.9545 23.736 11.9545C24.3481 11.9545 24.8335 11.4301 24.728 10.8271C24.255 8.12289 22.9146 5.71789 21.0024 3.91008C20.2716 3.21921 19.1219 3.47979 18.6196 4.351L18.5066 4.54692C18.5065 4.54718 18.5063 4.54742 18.5061 4.54763ZM1.00659 14.0391C1.54458 14.0391 1.98923 14.4486 2.09106 14.9769C2.60259 17.6305 4.12391 19.9212 6.23721 21.4447C6.23788 21.4452 6.23754 21.4463 6.23671 21.4463C6.23641 21.4463 6.23613 21.4464 6.23597 21.4467L5.87333 22.0756C5.50532 22.7139 4.66533 22.904 4.11023 22.4196C2.00115 20.579 0.51751 18.0419 0.0145749 15.1664C-0.0908814 14.5635 0.394503 14.0391 1.00659 14.0391ZM16.6478 22.4901C16.6483 22.4901 16.6485 22.4909 16.648 22.4911L16.6476 22.4913L16.6474 22.4909C16.6472 22.4905 16.6474 22.4901 16.6478 22.4901ZM16.6476 22.4913C17.2095 23.4636 16.8221 24.7238 15.7419 25.0309C14.6716 25.3351 13.5433 25.4999 12.3714 25.4999C10.8659 25.4999 9.43027 25.226 8.09829 24.7363C7.52319 24.5249 7.31179 23.8417 7.61836 23.3111C7.88766 22.8451 8.46475 22.6648 8.97314 22.8415C10.0377 23.2116 11.1789 23.4153 12.3714 23.4153C13.8988 23.4153 15.3419 23.0813 16.6476 22.4913ZM18.9778 22.2662C18.7082 21.7987 18.8402 21.2072 19.2477 20.8533C20.9714 19.3566 22.2021 17.3069 22.6517 14.9755C22.7534 14.448 23.1974 14.0391 23.7346 14.0391C24.3458 14.0391 24.8304 14.5627 24.7252 15.1647C24.2091 18.1169 22.6591 20.7109 20.4596 22.562C19.9879 22.959 19.2858 22.8003 18.9778 22.2662Z" fill="url(#paint0_linear_212_45655)"/>
<defs>
<linearGradient id="paint0_linear_212_45655" x1="5.34212" y1="0.496872" x2="5.34212" y2="24.9318" gradientUnits="userSpaceOnUse">
<stop stop-color="#50E7FF"/>
<stop offset="0.515625" stop-color="#2060FE"/>
<stop offset="1" stop-color="#8E18FC"/>
</linearGradient>
</defs>
</svg>
