<svg width="25" height="26" viewBox="0 0 25 26" fill="none" xmlns="http://www.w3.org/2000/svg">
<path fill-rule="evenodd" clip-rule="evenodd" d="M12.1337 3.00644L15.9988 7.3659C16.551 7.98838 17.5034 8.0458 18.1259 7.49364C18.7484 6.94148 18.8058 5.98903 18.2536 5.36655L14.3889 1.0071C13.8368 0.384614 12.8843 0.327193 12.2618 0.879354C11.6389 1.4311 11.5815 2.38355 12.1337 3.00644ZM24.829 23.9429C24.8698 23.0167 24.3958 22.3389 23.7954 21.6968C21.4969 19.2372 19.2055 16.7709 16.9141 14.3046L16.9136 14.3042L16.9132 14.3037C16.1108 13.44 15.3083 12.5764 14.5056 11.713C14.4364 11.6384 14.3694 11.5619 14.314 11.4987L14.314 11.4987C14.2924 11.474 14.2726 11.4514 14.2551 11.4317C14.3962 11.2173 14.5364 11.0044 14.6759 10.7928L14.6759 10.7927L14.676 10.7926L14.676 10.7926C15.0386 10.2421 15.3962 9.69935 15.7514 9.15484C16.009 8.75997 15.9486 8.44124 15.6174 8.07507C14.1881 6.49432 12.7809 4.89276 11.3924 3.2758C11.1015 2.9371 10.8044 2.84098 10.4403 3.02032C10.2519 3.11324 10.0611 3.20335 9.87004 3.29356L9.87002 3.29357L9.87 3.29358L9.86995 3.2936C9.25258 3.58511 8.63301 3.87766 8.08648 4.26944C6.4974 5.4083 5.04522 6.70153 4.13106 8.492C3.90595 8.93265 3.92717 9.24139 4.27669 9.62711C5.69433 11.1908 7.0866 12.7786 8.45889 14.3827C8.76222 14.7372 9.0668 14.8333 9.45502 14.6565C10.0198 14.3994 10.5787 14.1293 11.1636 13.8466L11.1637 13.8466C11.4165 13.7244 11.6741 13.5999 11.9391 13.4731C12.2333 13.8279 12.5352 14.1916 12.842 14.5613L12.8426 14.5619C13.4485 15.2918 14.0737 16.0451 14.697 16.7998C15.731 18.0525 16.7643 19.3056 17.7976 20.5588C18.8308 21.812 19.8641 23.0652 20.8981 24.3178C21.0271 24.4743 21.1628 24.6258 21.3042 24.771C22.3728 25.8645 23.7471 25.7134 24.5768 24.4148C24.6133 24.3577 24.6562 24.3051 24.6992 24.2525L24.6992 24.2524L24.6993 24.2524C24.7196 24.2275 24.7399 24.2026 24.7595 24.1772C24.7832 24.099 24.8061 24.0212 24.829 23.9429ZM5.49092 16.6826L1.62579 12.3231C1.07363 11.7002 1.13063 10.7478 1.75353 10.196C2.37601 9.64387 3.32846 9.70129 3.88062 10.3238L7.74575 14.6832C8.29791 15.3057 8.24049 16.2582 7.61801 16.8103C6.99552 17.3625 6.04308 17.3051 5.49092 16.6826ZM6.65733 25.4236H1.60175C0.450405 25.4236 -0.154185 24.7246 0.033891 23.5757C0.0775812 23.3077 0.179525 23.0319 0.321414 22.8005C0.559838 22.4119 0.959708 22.2962 1.40035 22.2966C2.98319 22.2983 4.56602 22.2979 6.14886 22.297C6.84509 22.2967 7.54126 22.2962 8.23741 22.2958H8.23754C9.39694 22.2949 10.5563 22.2941 11.7158 22.2941C12.8805 22.2941 13.488 23.0198 13.2987 24.1795C13.2025 24.767 12.945 25.2276 12.3229 25.3828C12.1731 25.4203 12.0117 25.4215 11.8556 25.4219C10.4697 25.4239 9.08327 25.4238 7.69671 25.4237H7.69669L6.65733 25.4236ZM5.58319 21.7281C5.93545 21.728 6.28772 21.728 6.63998 21.728C6.93256 21.7281 7.22513 21.7282 7.5177 21.7284C8.4934 21.7289 9.46909 21.7295 10.4448 21.7276C10.9046 21.7263 11.1792 21.5174 11.2745 21.0697C11.319 20.86 11.3294 20.6361 11.3144 20.4214C11.2716 19.8089 10.9641 19.5364 10.3491 19.5364C7.93488 19.5364 5.5211 19.5368 3.10732 19.5372C3.07567 19.5372 3.04402 19.5369 3.01237 19.5366C2.935 19.5358 2.85763 19.5351 2.78026 19.5389C2.4736 19.5543 2.25432 19.7012 2.12366 19.9816C1.97595 20.2983 1.97054 20.632 2.02505 20.964C2.11284 21.4991 2.39496 21.7271 2.93755 21.7276C3.81943 21.7285 4.70131 21.7283 5.58319 21.7281Z" fill="url(#paint0_linear_212_45688)"/>
<defs>
<linearGradient id="paint0_linear_212_45688" x1="5.08116" y1="0.5" x2="5.3651" y2="24.9318" gradientUnits="userSpaceOnUse">
<stop stop-color="#50E7FF"/>
<stop offset="0.495282" stop-color="#2060FE"/>
<stop offset="1" stop-color="#8E18FC"/>
</linearGradient>
</defs>
</svg>
