<svg width="26" height="25" viewBox="0 0 26 25" fill="none" xmlns="http://www.w3.org/2000/svg">
<path fill-rule="evenodd" clip-rule="evenodd" d="M24.9843 7.11111C24.901 7.41667 24.6232 7.63889 24.3176 7.63889H0.706516C0.400961 7.63889 0.0676275 7.41667 0.0120719 7.11111C-0.0434837 6.80556 0.0954053 6.47222 0.373183 6.33333L12.2065 0.0833333C12.401 -0.0277778 12.651 -0.0277778 12.8454 0.0833333L24.6232 6.33333C24.9287 6.47222 25.0676 6.80556 24.9843 7.11111ZM21.5121 6.25L12.5121 1.47222L3.51207 6.25H21.5121ZM0.706639 20.8333H24.3177C24.7066 20.8333 25.0122 21.1388 25.0122 21.5277V24.3055C25.0122 24.6944 24.7066 24.9999 24.3177 24.9999H0.706639C0.31775 24.9999 0.0121941 24.6944 0.0121941 24.3055V21.5277C0.0121941 21.1388 0.31775 20.8333 0.706639 20.8333ZM1.40108 23.611H23.6233V22.2221H1.40108V23.611ZM8.3454 9.02759C7.95651 9.02759 7.65095 9.33314 7.65095 9.72203V18.7498C7.65095 19.1387 7.95651 19.4443 8.3454 19.4443H10.4287C10.8176 19.4443 11.1232 19.1387 11.1232 18.7498V9.72203C11.1232 9.33314 10.8176 9.02759 10.4287 9.02759H8.3454ZM1.40058 9.72203C1.40058 9.33314 1.70614 9.02759 2.09503 9.02759H4.17836C4.56725 9.02759 4.87281 9.33314 4.87281 9.72203V18.7498C4.87281 19.1387 4.56725 19.4443 4.17836 19.4443H2.09503C1.70614 19.4443 1.40058 19.1387 1.40058 18.7498V9.72203ZM14.5949 9.02759C14.206 9.02759 13.9005 9.33314 13.9005 9.72203V18.7498C13.9005 19.1387 14.206 19.4443 14.5949 19.4443H16.6782C17.0671 19.4443 17.3727 19.1387 17.3727 18.7498V9.72203C17.3727 9.33314 17.0671 9.02759 16.6782 9.02759H14.5949ZM20.1508 9.72203C20.1508 9.33314 20.4564 9.02759 20.8453 9.02759H22.9286C23.3175 9.02759 23.623 9.33314 23.623 9.72203V18.7498C23.623 19.1387 23.3175 19.4443 22.9286 19.4443H20.8453C20.4564 19.4443 20.1508 19.1387 20.1508 18.7498V9.72203Z" fill="url(#paint0_linear_212_45647)"/>
<defs>
<linearGradient id="paint0_linear_212_45647" x1="5.11815" y1="-1.61261e-09" x2="5.40004" y2="24.4317" gradientUnits="userSpaceOnUse">
<stop stop-color="#50E7FF"/>
<stop offset="0.495282" stop-color="#2060FE"/>
<stop offset="1" stop-color="#8E18FC"/>
</linearGradient>
</defs>
</svg>
