<svg width="103" height="44" viewBox="0 0 103 44" fill="none" xmlns="http://www.w3.org/2000/svg">
<path fill-rule="evenodd" clip-rule="evenodd" d="M20.3301 3.60386C20.3808 3.55188 20.4319 3.50037 20.4835 3.44932C20.4926 3.44033 20.5017 3.43136 20.5108 3.42241C20.4499 3.48225 20.3897 3.54273 20.3301 3.60386ZM19.9093 3.08016C19.9094 3.08019 19.9094 3.08022 19.9094 3.08024L19.9094 3.08029C19.9403 3.11616 19.9711 3.15194 20.0031 3.18706M24.4301 5.95341C23.8919 6.30703 23.4011 6.72814 22.9699 7.20646C22.7465 7.4494 22.5375 7.70518 22.3439 7.97249L22.3407 7.97689L22.0571 8.41312L22.0731 8.49794C22.1293 8.79664 22.1718 9.10017 22.2073 9.40246C22.2497 9.77645 22.278 10.1541 22.2922 10.5353V22.8951C22.2922 23.567 22.0253 24.2113 21.5502 24.6864C21.0751 25.1615 20.4307 25.4284 19.7588 25.4284C19.0869 25.4284 18.4426 25.1615 17.9675 24.6864C17.4924 24.2113 17.2255 23.567 17.2255 22.8951L17.2256 10.7146L17.2253 10.7077C17.218 10.4757 17.1996 10.2142 17.17 9.97003C17.1406 9.72731 17.1003 9.47853 17.0567 9.23881C17.0124 8.99516 16.9571 8.75543 16.8944 8.52689C16.774 8.08812 16.6144 7.66109 16.4174 7.25099L16.4158 7.24795C16.3189 7.05404 16.2184 6.87929 16.115 6.71308L16.1124 6.70891L16.0307 6.58983L16.0273 6.58522C16.0202 6.57539 16.0131 6.56532 16.0049 6.55365L16.0025 6.55021L16.0025 6.55019C15.9869 6.52796 15.9658 6.49771 15.9412 6.46862C15.9158 6.43212 15.8887 6.39681 15.8601 6.36281V6.31468L15.8067 6.25376C15.7543 6.19394 15.6987 6.137 15.6402 6.08318C15.5832 6.03004 15.5178 5.97224 15.4441 5.91404L15.4408 5.91157C15.2854 5.79357 15.121 5.6878 14.9492 5.59525L14.9465 5.59385C14.561 5.39312 14.1526 5.2398 13.7302 5.13724L13.7288 5.13691C12.8342 4.92603 11.9062 4.8995 11.0011 5.05896L10.999 5.05935C10.7853 5.09918 10.5669 5.14412 10.3568 5.20903C10.1557 5.27121 9.95911 5.33777 9.76487 5.41622L9.75882 5.41888C9.73072 5.43124 9.70198 5.44335 9.67137 5.45624L9.66849 5.45745L9.66847 5.45746C9.61021 5.48199 9.54471 5.50956 9.48143 5.54112L9.22062 5.66603L9.2143 5.66932C9.06024 5.74956 8.91516 5.83496 8.77429 5.9179L8.7728 5.91877L8.77208 5.91919L8.70516 5.95853L8.49468 6.08555L8.49417 6.08586C8.00125 6.38517 7.41516 6.49188 6.84839 6.38549C6.28161 6.27911 5.77411 5.96712 5.42329 5.50943C5.07248 5.05174 4.90308 4.4806 4.94762 3.90565C4.99215 3.3307 5.24748 2.79245 5.6646 2.39425L5.665 2.39386C5.97369 2.09764 6.30774 1.82902 6.6633 1.59106L6.70199 1.56431C6.88592 1.43712 7.03654 1.3332 7.20381 1.24168C7.39024 1.13967 7.57661 1.04471 7.7701 0.953226C8.52098 0.606252 9.31332 0.357137 10.1277 0.211997C10.9205 0.0706692 11.7263 0.0163021 12.5309 0.0498552C13.3299 0.0863876 14.1231 0.204622 14.898 0.402677L14.9006 0.403312C15.2942 0.498677 15.6821 0.616205 16.0624 0.755335C16.454 0.901516 16.8376 1.06858 17.2114 1.25582C17.5996 1.45214 17.9719 1.67827 18.3253 1.93201L18.3307 1.93569C18.5192 2.06249 18.6886 2.19711 18.8691 2.34923L18.8701 2.3501C19.0513 2.50095 19.2245 2.66131 19.3887 2.83047L19.4512 2.8929L19.5044 2.95287L19.6214 3.08088L19.6248 3.08439C19.6656 3.12708 19.7039 3.1715 19.7461 3.22062L19.7472 3.22191C19.7766 3.25603 19.808 3.29261 19.8411 3.32897C19.9512 3.45987 20.0552 3.59508 20.1573 3.73235L20.308 3.93499L20.4843 3.75419C20.9526 3.27388 21.4603 2.83351 22.0019 2.43768C22.8168 1.84649 23.7036 1.36158 24.6411 0.994657C25.5645 0.636034 26.5261 0.384679 27.507 0.245543L27.508 0.245384C27.9979 0.173353 28.4791 0.107545 28.9391 0.107545C29.0984 0.107545 29.2601 0.104788 29.4215 0.102037L29.4215 0.102037L29.4225 0.10202C29.7533 0.0963802 30.0834 0.0908326 30.4123 0.107279L30.4133 0.107327C30.921 0.130193 31.4267 0.185597 31.9273 0.273204L31.9291 0.273497C32.4483 0.359935 32.9604 0.484722 33.4611 0.646826L33.4619 0.647079C33.7144 0.727733 33.9697 0.82221 34.2174 0.930338C34.4685 1.04001 34.7158 1.15659 34.9629 1.28363C35.4573 1.54077 35.9271 1.84264 36.3664 2.18549L36.3681 2.18679C36.5877 2.35465 36.7973 2.53518 36.9959 2.7274L36.9989 2.73025C37.2018 2.91911 37.3949 3.11914 37.5782 3.32362C37.7592 3.5255 37.9275 3.73924 38.0951 3.96031C38.26 4.17783 38.4141 4.40206 38.554 4.62936L38.5551 4.63114C38.8376 5.08039 39.0847 5.55099 39.294 6.03867L39.2944 6.03941C39.5011 6.51602 39.6754 7.00601 39.8162 7.50606C40.089 8.48849 40.2479 9.49901 40.2898 10.5177V10.6861H40.2395V22.9166C40.2395 23.5885 39.9726 24.2329 39.4975 24.708C39.0224 25.1831 38.3781 25.45 37.7062 25.45C37.0343 25.45 36.3899 25.1831 35.9148 24.708C35.4397 24.2329 35.1728 23.5885 35.1728 22.9166V10.7354L35.1726 10.7311C35.1475 10.1054 35.047 9.48481 34.8733 8.88321C34.7902 8.59667 34.6902 8.31529 34.5739 8.04055C34.5175 7.90522 34.4542 7.77475 34.388 7.64948C34.3261 7.52163 34.2576 7.39712 34.1827 7.27647C33.9128 6.81168 33.57 6.39322 33.1674 6.03707C32.7626 5.67592 32.3002 5.38504 31.7993 5.17646L31.7985 5.17611C31.2367 4.9449 30.6445 4.79586 30.0402 4.73358C29.7103 4.69617 29.3785 4.67776 29.0464 4.67843L29.0446 4.67845C28.7062 4.68209 28.3693 4.69665 28.0382 4.72972C27.3913 4.78913 26.7533 4.9227 26.1368 5.1278C25.5347 5.32807 24.9609 5.6057 24.4301 5.95341ZM5.24281 22.8268C5.24281 24.2736 4.06998 25.4464 2.62322 25.4464C1.17646 25.4464 0.00363205 24.2736 0.00363205 22.8268C0.00363205 21.38 1.17646 20.2072 2.62322 20.2072C4.06998 20.2072 5.24281 21.38 5.24281 22.8268ZM5.24277 9.6225V16.111C5.21768 16.7887 4.93106 17.4305 4.44297 17.9015C3.95398 18.3734 3.30094 18.6371 2.62139 18.6371C1.94183 18.6371 1.28879 18.3734 0.799805 17.9015C0.311717 17.4305 0.0250948 16.7887 0 16.111V9.62249C0.0250948 8.94475 0.311717 8.303 0.799806 7.83198C1.2888 7.36008 1.94183 7.09637 2.62139 7.09637C3.30094 7.09637 3.95398 7.36008 4.44297 7.83198C4.93106 8.30301 5.21768 8.94475 5.24277 9.6225Z" fill="white"/>
<path d="M67.3871 21.387C65.7489 24.1867 62.1585 25.7189 58.7271 25.7189C51.9663 25.7189 46.2119 20.6493 46.2119 12.833C46.2119 5.01666 51.9663 0 58.7271 0C62.1585 0 65.7489 1.42631 67.3871 4.22595V2.69372C67.3871 2.37823 67.4492 2.06583 67.5699 1.77436C67.6907 1.48289 67.8676 1.21805 68.0907 0.994964C68.3138 0.771881 68.5786 0.59492 68.8701 0.474189C69.1616 0.353457 69.474 0.291316 69.7895 0.291316C70.1049 0.291316 70.4174 0.353457 70.7088 0.474189C71.0003 0.59492 71.2651 0.771881 71.4882 0.994964C71.7113 1.21805 71.8883 1.48289 72.009 1.77436C72.1297 2.06583 72.1919 2.37823 72.1919 2.69372V23.0252C72.1919 23.3407 72.1297 23.6531 72.009 23.9445C71.8883 24.236 71.7113 24.5009 71.4882 24.7239C71.2651 24.947 71.0003 25.124 70.7088 25.2447C70.4174 25.3654 70.1049 25.4276 69.7895 25.4276C69.474 25.4276 69.1616 25.3654 68.8701 25.2447C68.5786 25.124 68.3138 24.947 68.0907 24.7239C67.8676 24.5009 67.6907 24.236 67.5699 23.9445C67.4492 23.6531 67.3871 23.3407 67.3871 23.0252V21.387ZM59.147 4.70265C54.713 4.70265 51.1226 7.86928 51.1226 12.78C51.1226 17.6907 54.713 21.0163 59.147 21.0163C63.5811 21.0163 67.3341 18.0085 67.3341 12.78C67.3341 7.55148 63.1081 4.70265 59.147 4.70265Z" fill="white"/>
<path d="M101.082 14.6868H82.9219C83.5007 18.803 86.7241 21.3908 90.8933 21.3908C93.8518 21.3908 95.4862 20.6531 97.1773 18.803C98.074 17.8004 99.4473 17.4826 100.397 18.1712C101.347 18.8598 101.558 20.3353 100.821 21.1789C98.4448 24.2434 94.7674 25.7189 90.7344 25.7189C83.7126 25.7189 78.1133 20.5963 78.1133 12.78C78.1133 4.96369 83.7126 0 90.7344 0C97.7562 0 103 4.96748 103 12.7838C103.001 13.0354 102.953 13.2848 102.857 13.5174C102.761 13.7499 102.619 13.961 102.441 14.1382C102.262 14.3154 102.05 14.4552 101.816 14.5494C101.583 14.6436 101.333 14.6903 101.082 14.6868ZM98.2291 10.9375C97.6503 6.81751 94.6917 4.33567 90.7306 4.33567C86.6673 4.33567 83.4969 6.81751 82.9181 10.9375H98.2291Z" fill="white"/>
<path d="M36.2796 31.6879V35.2908C36.6743 34.616 37.5018 34.2723 38.3675 34.2723C40.0098 34.2723 41.372 35.469 41.372 37.3659C41.372 39.2501 39.9843 40.4723 38.3548 40.4723C37.5272 40.4723 36.6743 40.1031 36.2796 39.4283V39.823C36.2796 40.1413 36.025 40.4086 35.694 40.4086C35.3757 40.4086 35.1211 40.1413 35.1211 39.823V31.6879C35.1211 31.3696 35.3757 31.1023 35.694 31.1023C36.025 31.1023 36.2796 31.3696 36.2796 31.6879ZM36.2923 37.3532C36.2923 38.6136 37.209 39.3392 38.2656 39.3392C39.335 39.3392 40.188 38.5244 40.188 37.3532C40.188 36.1692 39.335 35.4054 38.2656 35.4054C37.3108 35.4054 36.2923 36.0801 36.2923 37.3532Z" fill="#747ABA"/>
<path d="M43.0599 34.7306L44.7022 38.7027L46.3573 34.6924C46.4718 34.3996 46.8156 34.2596 47.1084 34.3742C47.4139 34.4887 47.5412 34.8325 47.4139 35.1253L44.1548 42.9166C44.0402 43.2094 43.7092 43.3495 43.4037 43.2349C43.1236 43.1076 43.009 42.7766 43.1236 42.4838L44.0657 40.1667L41.9778 35.1125C41.876 34.8197 42.016 34.4505 42.3215 34.3614C42.6398 34.2723 42.9326 34.4123 43.0599 34.7306Z" fill="#747ABA"/>
<path fill-rule="evenodd" clip-rule="evenodd" d="M100.793 39.5285C100.793 39.6679 100.738 39.8017 100.639 39.9003C100.541 39.9989 100.407 40.0543 100.267 40.0543C100.128 40.0543 99.9942 39.9989 99.8955 39.9003C99.7969 39.8017 99.7415 39.6679 99.7415 39.5285V35.4951H99.0948C99.0348 35.4977 98.9748 35.4881 98.9186 35.4669C98.8623 35.4457 98.8109 35.4133 98.7675 35.3717C98.7241 35.3302 98.6895 35.2802 98.6659 35.2249C98.6423 35.1696 98.6301 35.1101 98.6301 35.05C98.6301 34.9899 98.6423 34.9304 98.6659 34.8751C98.6895 34.8198 98.7241 34.7699 98.7675 34.7283C98.8109 34.6867 98.8623 34.6543 98.9186 34.6331C98.9748 34.612 99.0348 34.6024 99.0948 34.6049H99.7415V34.0038C99.7415 32.5829 100.354 31.6116 101.812 31.6116H101.959C102.025 31.6116 102.09 31.6246 102.151 31.6498C102.212 31.6751 102.268 31.7121 102.314 31.7588C102.361 31.8055 102.398 31.8609 102.423 31.9218C102.449 31.9828 102.462 32.0482 102.462 32.1142C102.462 32.1802 102.449 32.2456 102.423 32.3065C102.398 32.3675 102.361 32.4229 102.314 32.4696C102.268 32.5163 102.212 32.5533 102.151 32.5786C102.09 32.6038 102.025 32.6168 101.959 32.6168H101.809C100.942 32.6168 100.78 33.3107 100.792 34.0038V34.6049H101.728C101.788 34.6024 101.848 34.612 101.904 34.6331C101.961 34.6543 102.012 34.6867 102.055 34.7283C102.099 34.7699 102.133 34.8198 102.157 34.8751C102.181 34.9304 102.193 34.9899 102.193 35.05C102.193 35.1101 102.181 35.1696 102.157 35.2249C102.133 35.2802 102.099 35.3302 102.055 35.3717C102.012 35.4133 101.961 35.4457 101.904 35.4669C101.848 35.4881 101.788 35.4977 101.728 35.4951H100.793V39.5285ZM68.0591 35.467C68.1154 35.4882 68.1753 35.4978 68.2354 35.4952H68.815V39.5286C68.815 39.5977 68.8286 39.6661 68.855 39.7299C68.8815 39.7937 68.9202 39.8516 68.969 39.9004C69.0179 39.9493 69.0758 39.988 69.1396 40.0144C69.2034 40.0408 69.2718 40.0545 69.3408 40.0545C69.4099 40.0545 69.4783 40.0408 69.542 40.0144C69.6058 39.988 69.6638 39.9493 69.7126 39.9004C69.7615 39.8516 69.8002 39.7937 69.8266 39.7299C69.853 39.6661 69.8666 39.5977 69.8666 39.5286V35.4952H70.6293C70.6893 35.4978 70.7493 35.4882 70.8055 35.467C70.8618 35.4458 70.9132 35.4135 70.9566 35.3719C71 35.3303 71.0346 35.2804 71.0582 35.2251C71.0818 35.1698 71.094 35.1103 71.094 35.0502C71.094 34.9901 71.0818 34.9306 71.0582 34.8753C71.0346 34.82 71 34.77 70.9566 34.7284C70.9132 34.6869 70.8618 34.6545 70.8055 34.6333C70.7493 34.6121 70.6893 34.6025 70.6293 34.6051H69.8666V33.0451C69.8666 32.976 69.853 32.9076 69.8266 32.8438C69.8002 32.7801 69.7615 32.7221 69.7126 32.6733C69.6638 32.6244 69.6058 32.5857 69.542 32.5593C69.4783 32.5329 69.4099 32.5193 69.3408 32.5193C69.2718 32.5193 69.2034 32.5329 69.1396 32.5593C69.0758 32.5857 69.0179 32.6244 68.969 32.6733C68.9202 32.7221 68.8815 32.7801 68.855 32.8438C68.8286 32.9076 68.815 32.976 68.815 33.0451V34.6051H68.2354C68.1753 34.6025 68.1154 34.6121 68.0591 34.6333C68.0028 34.6545 67.9515 34.6869 67.908 34.7284C67.8646 34.77 67.8301 34.82 67.8065 34.8753C67.7829 34.9306 67.7707 34.9901 67.7707 35.0502C67.7707 35.1103 67.7829 35.1698 67.8065 35.2251C67.8301 35.2804 67.8646 35.3303 67.908 35.3719C67.9515 35.4135 68.0028 35.4458 68.0591 35.467ZM63.118 37.703H67.0926C67.1476 37.7037 67.2023 37.6935 67.2534 37.6729C67.3044 37.6523 67.3509 37.6217 67.39 37.5829C67.4291 37.5441 67.46 37.4979 67.481 37.447C67.5021 37.3961 67.5127 37.3415 67.5124 37.2865C67.5124 35.5757 66.3647 34.4885 64.8279 34.4885C63.291 34.4885 62.0655 35.5749 62.0655 37.2856C62.0655 38.9964 63.291 40.1175 64.8279 40.1175C65.7106 40.1175 66.5154 39.7946 67.0354 39.1239C67.1969 38.9392 67.1505 38.6163 66.9427 38.4656C66.7349 38.3149 66.4343 38.3845 66.238 38.6039C65.8679 39.0088 65.5102 39.1703 64.8626 39.1703C63.9501 39.1703 63.2446 38.6039 63.118 37.703ZM64.827 35.4374C65.694 35.4374 66.3415 35.9806 66.4682 36.8824H63.1171C63.2438 35.9806 63.9377 35.4374 64.827 35.4374ZM76.0139 39.1699C75.6554 39.7827 74.8696 40.118 74.1186 40.118C72.6388 40.118 71.3794 39.0084 71.3794 37.2977C71.3794 35.587 72.6388 34.489 74.1186 34.489C74.8696 34.489 75.6554 34.8011 76.0139 35.4139V35.0785C76.0139 35.0095 76.0275 34.9411 76.054 34.8773C76.0804 34.8135 76.1191 34.7556 76.168 34.7067C76.2168 34.6579 76.2747 34.6192 76.3385 34.5928C76.4023 34.5663 76.4707 34.5527 76.5398 34.5527C76.6088 34.5527 76.6772 34.5663 76.741 34.5928C76.8048 34.6192 76.8627 34.6579 76.9116 34.7067C76.9604 34.7556 76.9991 34.8135 77.0255 34.8773C77.052 34.9411 77.0656 35.0095 77.0656 35.0785V39.5284C77.0656 39.5975 77.052 39.6659 77.0255 39.7297C76.9991 39.7935 76.9604 39.8514 76.9116 39.9002C76.8627 39.9491 76.8048 39.9878 76.741 40.0142C76.6772 40.0406 76.6088 40.0542 76.5398 40.0542C76.4707 40.0542 76.4023 40.0406 76.3385 40.0142C76.2747 39.9878 76.2168 39.9491 76.168 39.9002C76.1191 39.8514 76.0804 39.7935 76.054 39.7297C76.0275 39.6659 76.0139 39.5975 76.0139 39.5284V39.1699ZM74.2105 35.5182C73.24 35.5182 72.4542 36.2113 72.4542 37.2861C72.4542 38.3609 73.24 39.0888 74.2105 39.0888C75.1809 39.0888 76.0024 38.4305 76.0024 37.2861C76.0024 36.1417 75.0774 35.5182 74.2105 35.5182ZM78.5971 34.707C78.4985 34.8056 78.4431 34.9394 78.4431 35.0788L78.4406 39.5287C78.4406 39.6682 78.496 39.8019 78.5946 39.9005C78.6932 39.9991 78.8269 40.0545 78.9664 40.0545C79.1059 40.0545 79.2396 39.9991 79.3382 39.9005C79.4368 39.8019 79.4922 39.6682 79.4922 39.5287V37.0901C79.4922 35.9574 80.2432 35.4953 80.9943 35.4953C81.6998 35.4953 82.1618 36.0501 82.1618 36.9394V39.5304C82.1618 39.6698 82.2172 39.8036 82.3158 39.9022C82.4144 40.0008 82.5482 40.0562 82.6876 40.0562C82.8271 40.0562 82.9608 40.0008 83.0594 39.9022C83.158 39.8036 83.2134 39.6698 83.2134 39.5304V37.0918C83.2134 36.1884 83.7566 35.5069 84.6468 35.5185C85.421 35.5185 85.883 36.0617 85.883 36.951V39.537C85.883 39.6764 85.9384 39.8102 86.037 39.9088C86.1357 40.0074 86.2694 40.0628 86.4089 40.0628C86.5483 40.0628 86.682 40.0074 86.7807 39.9088C86.8793 39.8102 86.9347 39.6764 86.9347 39.537V36.8873C86.9347 35.3728 86.2068 34.4942 84.8546 34.4942C84.323 34.4942 83.4792 34.6449 82.9824 35.6038C82.734 35.0134 82.257 34.6317 81.5747 34.5273C81.3803 34.4923 81.1824 34.4807 80.9852 34.4926C80.5463 34.5273 79.7837 34.8163 79.4947 35.4175V35.0788C79.4947 34.9394 79.4393 34.8056 79.3407 34.707C79.2421 34.6084 79.1083 34.553 78.9689 34.553C78.8294 34.553 78.6957 34.6084 78.5971 34.707ZM87.9529 37.2861C87.9529 35.5754 89.2355 34.489 90.7683 34.489C92.301 34.489 93.6002 35.5754 93.6002 37.2861C93.6002 38.9968 92.3059 40.118 90.7683 40.118C89.2306 40.118 87.9529 38.9968 87.9529 37.2861ZM92.5527 37.2861C92.5527 36.1997 91.7437 35.5182 90.7724 35.5182C89.8011 35.5182 88.9929 36.1997 88.9929 37.2861C88.9929 38.3725 89.8019 39.1003 90.7724 39.1003C91.7429 39.1003 92.5527 38.3841 92.5527 37.2861ZM95.7203 38.0371C95.7203 36.6046 96.1591 35.495 97.2 35.495C97.281 35.4934 97.3621 35.4973 97.4426 35.5066C97.8119 35.5414 98.1125 35.4677 98.1705 35.1365C98.2632 34.5718 97.6157 34.489 97.2232 34.489C96.5177 34.489 95.9977 34.8707 95.7203 35.8188V35.0785C95.7203 34.9391 95.6649 34.8053 95.5663 34.7067C95.4677 34.6081 95.3339 34.5527 95.1945 34.5527C95.055 34.5527 94.9213 34.6081 94.8227 34.7067C94.7241 34.8053 94.6687 34.9391 94.6687 35.0785V39.5276C94.6687 39.6671 94.7241 39.8008 94.8227 39.8994C94.9213 39.998 95.055 40.0534 95.1945 40.0534C95.3339 40.0534 95.4677 39.998 95.5663 39.8994C95.6649 39.8008 95.7203 39.6671 95.7203 39.5276V38.0371ZM60.922 36.626V36.7155H60.9104V39.4844C60.9104 39.6524 60.8437 39.8136 60.7249 39.9324C60.6061 40.0512 60.445 40.1179 60.2769 40.1179C60.1089 40.1179 59.9478 40.0512 59.829 39.9324C59.7102 39.8136 59.6435 39.6524 59.6435 39.4844V36.7295V36.6782C59.6379 36.538 59.6153 36.399 59.5764 36.2642C59.5578 36.2 59.5354 36.1369 59.5094 36.0754C59.4969 36.0456 59.4829 36.0166 59.468 35.9884C59.4543 35.96 59.4391 35.9324 59.4224 35.9056C59.3628 35.8028 59.287 35.7103 59.198 35.6316C59.1088 35.552 59.0069 35.4879 58.8966 35.4419C58.7715 35.3904 58.6395 35.3572 58.5049 35.3434C58.4307 35.335 58.3561 35.3308 58.2814 35.331C58.2044 35.3318 58.1282 35.3351 58.0537 35.3426C57.9083 35.3559 57.7649 35.3859 57.6264 35.432C57.4917 35.4768 57.3634 35.5389 57.2447 35.6166C57.1241 35.6959 57.0142 35.7902 56.9176 35.8974C56.8673 35.952 56.8203 36.0095 56.7768 36.0696L56.723 36.1524C56.7362 36.2228 56.7462 36.294 56.7545 36.3644C56.7644 36.4521 56.771 36.5407 56.7743 36.6302V36.6981V39.4795C56.7743 39.6475 56.7076 39.8086 56.5888 39.9274C56.47 40.0462 56.3089 40.1129 56.1409 40.1129C55.9729 40.1129 55.8117 40.0462 55.693 39.9274C55.5742 39.8086 55.5074 39.6475 55.5074 39.4795V36.7138V36.6724C55.5058 36.6202 55.5016 36.5614 55.495 36.5068C55.4884 36.4521 55.4793 36.3958 55.4693 36.3412C55.4594 36.2865 55.447 36.2327 55.4329 36.1814C55.4059 36.0831 55.3702 35.9875 55.3261 35.8957C55.3045 35.8526 55.2822 35.8137 55.259 35.7765L55.2408 35.75L55.2351 35.742C55.2307 35.7356 55.2264 35.7296 55.2217 35.7243C55.2159 35.7157 55.2095 35.7074 55.2027 35.6995L55.1928 35.6879V35.6821V35.6771C55.1818 35.6646 55.1702 35.6527 55.158 35.6415C55.1456 35.6299 55.1315 35.6175 55.1158 35.6051C55.082 35.5794 55.0463 35.5564 55.0089 35.5363C54.9236 35.4919 54.8333 35.458 54.7398 35.4353C54.5402 35.3883 54.3332 35.3823 54.1312 35.4179C54.0824 35.427 54.0343 35.437 53.9888 35.451C53.9432 35.4651 53.8994 35.48 53.8563 35.4974L53.8354 35.5063C53.8214 35.5122 53.8074 35.5181 53.7942 35.5247L53.7338 35.5537C53.6994 35.5716 53.6669 35.5908 53.6341 35.6101L53.6187 35.6191L53.5706 35.6481C53.4466 35.7234 53.2991 35.7503 53.1564 35.7235C53.0138 35.6967 52.8861 35.6182 52.7978 35.503C52.7095 35.3879 52.6669 35.2441 52.6781 35.0994C52.6893 34.9547 52.7535 34.8193 52.8585 34.7191C52.9317 34.6488 53.011 34.5851 53.0953 34.5286L53.1036 34.5229L53.1036 34.5229L53.1036 34.5229C53.1457 34.4938 53.1825 34.4683 53.2237 34.4458C53.2676 34.4218 53.3114 34.3994 53.357 34.3779C53.534 34.2961 53.7207 34.2374 53.9126 34.2032C54.0989 34.17 54.2883 34.1572 54.4773 34.1651C54.6649 34.1737 54.8511 34.2014 55.033 34.2479C55.1255 34.2703 55.2168 34.298 55.3062 34.3307C55.3982 34.365 55.4883 34.4043 55.5761 34.4483C55.6679 34.4947 55.7559 34.5481 55.8395 34.6081C55.885 34.6387 55.9256 34.671 55.9678 34.7066C56.0109 34.7425 56.0521 34.7807 56.0912 34.8209L56.1061 34.8358L56.1193 34.8507L56.1458 34.8797C56.1563 34.8906 56.1659 34.9018 56.1755 34.913L56.1755 34.913L56.1756 34.913L56.1756 34.913C56.1827 34.9213 56.1898 34.9296 56.1972 34.9377C56.2237 34.9691 56.2485 35.0014 56.2725 35.0337C56.3824 34.921 56.5015 34.8177 56.6286 34.7248C56.8198 34.5861 57.028 34.4723 57.248 34.3862C57.4644 34.3021 57.6897 34.2432 57.9195 34.2106C58.0321 34.1941 58.1464 34.1783 58.2565 34.1783C58.2928 34.1783 58.3297 34.1777 58.3671 34.1771H58.3671H58.3671H58.3671C58.4431 34.1758 58.5208 34.1745 58.5985 34.1783C58.7176 34.1837 58.8363 34.1967 58.9537 34.2173C59.0758 34.2376 59.1962 34.2669 59.3139 34.305C59.3736 34.3241 59.434 34.3464 59.4928 34.3721C59.5516 34.3978 59.6095 34.4251 59.6675 34.4549C59.7842 34.5156 59.8951 34.5868 59.9987 34.6677C60.0509 34.7076 60.1006 34.7504 60.1478 34.7961C60.1958 34.8408 60.2413 34.888 60.2844 34.936C60.3275 34.984 60.3672 35.0345 60.4061 35.0859C60.445 35.1372 60.4815 35.1902 60.5146 35.244C60.5811 35.3497 60.6392 35.4605 60.6885 35.5752C60.737 35.6872 60.778 35.8023 60.811 35.9197C60.875 36.1501 60.9122 36.3871 60.922 36.626ZM52.1923 40.1172C52.5531 40.1172 52.8456 39.8247 52.8456 39.4639C52.8456 39.1031 52.5531 38.8106 52.1923 38.8106C51.8315 38.8106 51.5389 39.1031 51.5389 39.4639C51.5389 39.8247 51.8315 40.1172 52.1923 40.1172ZM52.6451 38.3648C52.767 38.2472 52.8386 38.0867 52.8446 37.9174V36.4203C52.8386 36.2509 52.767 36.0905 52.6451 35.9728C52.5232 35.8552 52.3603 35.7894 52.1908 35.7894C52.0214 35.7894 51.8585 35.8552 51.7366 35.9728C51.6147 36.0905 51.5431 36.2509 51.5371 36.4203V37.9174C51.5431 38.0867 51.6147 38.2472 51.7366 38.3648C51.8585 38.4825 52.0214 38.5483 52.1908 38.5483C52.3603 38.5483 52.5232 38.4825 52.6451 38.3648Z" fill="#747ABA"/>
</svg>
