<svg width="89" height="46" viewBox="0 0 89 46" fill="none" xmlns="http://www.w3.org/2000/svg">
<path fill-rule="evenodd" clip-rule="evenodd" d="M18.1962 10.5985C18.1593 10.5489 18.1219 10.4992 18.0837 10.4498C18.1219 10.4992 18.1593 10.5489 18.1962 10.5985ZM21.7077 12.6108C21.2467 12.9137 20.8264 13.2743 20.4571 13.684C20.2658 13.8921 20.0867 14.1111 19.9209 14.3401L19.9182 14.3439L19.6754 14.7175L19.689 14.7901C19.7372 15.0459 19.7735 15.3059 19.804 15.5648C19.8403 15.8851 19.8645 16.2085 19.8767 16.535V27.1208C19.8767 27.6962 19.6481 28.2481 19.2412 28.655C18.8342 29.0619 18.2824 29.2905 17.7069 29.2905C17.1315 29.2905 16.5796 29.0619 16.1727 28.655C15.7658 28.2481 15.5372 27.6962 15.5372 27.1208L15.5373 16.6886L15.5371 16.6827C15.5308 16.484 15.515 16.26 15.4897 16.0509C15.4645 15.843 15.43 15.63 15.3927 15.4246C15.3547 15.216 15.3073 15.0106 15.2537 14.8149C15.1506 14.4391 15.0138 14.0734 14.8451 13.7221L14.8438 13.7195C14.7607 13.5535 14.6747 13.4038 14.5861 13.2614L14.5839 13.2579L14.5139 13.1559L14.511 13.1519C14.5049 13.1435 14.4988 13.1349 14.4918 13.1249L14.4898 13.1219C14.4764 13.1029 14.4583 13.077 14.4372 13.0521C14.4155 13.0208 14.3923 12.9906 14.3678 12.9614V12.9202L14.3221 12.868C14.2772 12.8168 14.2296 12.7681 14.1794 12.722C14.1306 12.6764 14.0746 12.6269 14.0115 12.5771L14.0087 12.575C13.8756 12.4739 13.7348 12.3833 13.5877 12.3041L13.5854 12.3029C13.2552 12.1309 12.9054 11.9996 12.5436 11.9118L12.5424 11.9115C11.7763 11.7309 10.9814 11.7082 10.2062 11.8447L10.2044 11.8451C10.0215 11.8792 9.83434 11.9177 9.65446 11.9733C9.48217 12.0265 9.31381 12.0835 9.14745 12.1507L9.14227 12.153C9.11821 12.1636 9.09359 12.174 9.06737 12.185L9.0649 12.186L9.06489 12.186C9.01499 12.2071 8.9589 12.2307 8.9047 12.2577L8.68132 12.3647L8.67591 12.3675C8.54396 12.4362 8.41971 12.5094 8.29905 12.5804L8.29778 12.5811L8.29716 12.5815L8.23985 12.6152L8.05958 12.724L8.05914 12.7242C7.63698 12.9806 7.13501 13.072 6.64959 12.9809C6.16416 12.8898 5.7295 12.6226 5.42904 12.2306C5.12858 11.8386 4.9835 11.3494 5.02164 10.857C5.05979 10.3645 5.27847 9.90356 5.63571 9.56251L5.63605 9.56218C5.90044 9.30847 6.18654 9.07841 6.49106 8.87461L6.52421 8.8517C6.68173 8.74277 6.81074 8.65376 6.95399 8.57538C7.11366 8.48801 7.27329 8.40668 7.439 8.32832C8.08211 8.03115 8.76072 7.81779 9.45817 7.69349C10.1372 7.57244 10.8274 7.52588 11.5165 7.55462C12.2008 7.58591 12.8801 7.68717 13.5438 7.8568L13.546 7.85734C13.8831 7.93902 14.2153 8.03968 14.5411 8.15884C14.8765 8.28404 15.205 8.42712 15.5251 8.58748C15.8576 8.75563 16.1765 8.9493 16.4791 9.16662L16.4838 9.16977C16.6453 9.27837 16.7904 9.39367 16.9449 9.52395L16.9458 9.5247C17.101 9.65389 17.2493 9.79124 17.39 9.93612L17.4434 9.98958L17.4891 10.0409L17.5892 10.1506L17.5921 10.1536C17.6271 10.1902 17.6599 10.2282 17.696 10.2703L17.697 10.2714C17.7221 10.3006 17.7491 10.3319 17.7774 10.3631C17.8717 10.4752 17.9608 10.591 18.0482 10.7085L18.1773 10.8821L18.3283 10.7273C18.7294 10.3159 19.1642 9.93872 19.6281 9.59971C20.3259 9.09337 21.0855 8.67806 21.8884 8.36381C22.6793 8.05666 23.5029 7.84138 24.3429 7.72222L24.3439 7.72208C24.7634 7.66039 25.1755 7.60403 25.5695 7.60403C25.7059 7.60403 25.8444 7.60167 25.9827 7.59931L25.9827 7.59931L25.9835 7.5993C26.2669 7.59446 26.5496 7.58971 26.8312 7.6038L26.8322 7.60384C27.267 7.62342 27.7001 7.67088 28.1288 7.74591L28.1303 7.74616C28.575 7.82019 29.0136 7.92707 29.4425 8.0659L29.4432 8.06612C29.6594 8.1352 29.8781 8.21611 30.0902 8.30872C30.3053 8.40265 30.5171 8.50249 30.7287 8.6113C31.1521 8.83153 31.5545 9.09008 31.9308 9.38372L31.9322 9.38483C32.1203 9.52859 32.2998 9.68321 32.4699 9.84784L32.4725 9.85028C32.6462 10.012 32.8116 10.1834 32.9686 10.3585C33.1236 10.5314 33.2678 10.7144 33.4113 10.9038C33.5525 11.0901 33.6845 11.2821 33.8043 11.4768L33.8053 11.4783C34.0473 11.8631 34.2589 12.2662 34.4382 12.6838L34.4384 12.6845C34.6155 13.0927 34.7648 13.5123 34.8854 13.9406C35.119 14.782 35.2551 15.6475 35.291 16.52V16.6642H35.248V27.1392C35.248 27.7147 35.0194 28.2666 34.6125 28.6735C34.2056 29.0804 33.6537 29.309 33.0782 29.309C32.5028 29.309 31.9509 29.0804 31.544 28.6735C31.1371 28.2666 30.9085 27.7147 30.9085 27.1392V16.7064L30.9083 16.7027C30.8868 16.1668 30.8007 15.6353 30.6519 15.1201C30.5808 14.8747 30.4952 14.6337 30.3956 14.3984C30.3472 14.2825 30.293 14.1707 30.2363 14.0634C30.1833 13.9539 30.1247 13.8473 30.0605 13.744C29.8293 13.3459 29.5357 12.9875 29.1909 12.6825C28.8442 12.3731 28.4481 12.124 28.0192 11.9454L28.0185 11.9451C27.5373 11.7471 27.0301 11.6194 26.5125 11.5661C26.23 11.534 25.9458 11.5183 25.6615 11.5188L25.6599 11.5188C25.3701 11.522 25.0815 11.5344 24.798 11.5628C24.2438 11.6136 23.6974 11.728 23.1694 11.9037C22.6538 12.0752 22.1623 12.313 21.7077 12.6108ZM5.27447 27.0623C5.27447 28.3014 4.26998 29.3059 3.03088 29.3059C1.79178 29.3059 0.78729 28.3014 0.78729 27.0623C0.78729 25.8232 1.79178 24.8187 3.03088 24.8187C4.26998 24.8187 5.27447 25.8232 5.27447 27.0623ZM5.27443 15.7533V21.3104C5.25294 21.8909 5.00746 22.4405 4.58943 22.8439C4.17063 23.2481 3.61132 23.4739 3.02931 23.4739C2.44729 23.4739 1.88799 23.2481 1.46919 22.8439C1.05115 22.4405 0.805673 21.8909 0.78418 21.3104V15.7533C0.805673 15.1728 1.05115 14.6232 1.46919 14.2197C1.88799 13.8156 2.44729 13.5897 3.02931 13.5897C3.61132 13.5897 4.17063 13.8156 4.58943 14.2197C5.00746 14.6232 5.25294 15.1728 5.27443 15.7533Z" fill="white"/>
<path d="M58.4991 25.8636C57.096 28.2614 54.021 29.5737 51.0821 29.5737C45.2917 29.5737 40.3633 25.2318 40.3633 18.5374C40.3633 11.843 45.2917 7.54639 51.0821 7.54639C54.021 7.54639 57.096 8.76797 58.4991 11.1658V9.85346C58.4991 9.58326 58.5523 9.3157 58.6557 9.06606C58.7591 8.81643 58.9107 8.5896 59.1017 8.39854C59.2928 8.20748 59.5196 8.05592 59.7692 7.95251C60.0189 7.84911 60.2864 7.79589 60.5566 7.79589C60.8268 7.79589 61.0944 7.84911 61.344 7.95251C61.5937 8.05592 61.8205 8.20748 62.0116 8.39854C62.2026 8.5896 62.3542 8.81643 62.4576 9.06606C62.561 9.3157 62.6142 9.58326 62.6142 9.85346V27.2667C62.6142 27.5369 62.561 27.8044 62.4576 28.0541C62.3542 28.3037 62.2026 28.5305 62.0116 28.7216C61.8205 28.9127 61.5937 29.0642 61.344 29.1676C61.0944 29.271 60.8268 29.3242 60.5566 29.3242C60.2864 29.3242 60.0189 29.271 59.7692 29.1676C59.5196 29.0642 59.2928 28.9127 59.1017 28.7216C58.9107 28.5305 58.7591 28.3037 58.6557 28.0541C58.5523 27.8044 58.4991 27.5369 58.4991 27.2667V25.8636ZM51.4418 11.574C47.6442 11.574 44.5692 14.2861 44.5692 18.492C44.5692 22.6979 47.6442 25.5461 51.4418 25.5461C55.2394 25.5461 58.4537 22.9701 58.4537 18.492C58.4537 14.014 54.8343 11.574 51.4418 11.574Z" fill="white"/>
<path d="M87.3572 20.1251H71.8039C72.2997 23.6505 75.0604 25.8669 78.6312 25.8669C81.1651 25.8669 82.5649 25.235 84.0133 23.6505C84.7812 22.7919 85.9574 22.5197 86.7707 23.1094C87.584 23.6991 87.7655 24.9628 87.1336 25.6854C85.0988 28.31 81.9492 29.5737 78.4951 29.5737C72.4811 29.5737 67.6855 25.1864 67.6855 18.492C67.6855 11.7976 72.4811 7.54639 78.4951 7.54639C84.509 7.54639 89 11.8009 89 18.4953C89.0013 18.7108 88.9597 18.9243 88.8774 19.1235C88.7951 19.3227 88.674 19.5035 88.521 19.6553C88.368 19.807 88.1863 19.9268 87.9864 20.0075C87.7866 20.0881 87.5727 20.1281 87.3572 20.1251ZM84.9141 16.914C84.4183 13.3854 81.8844 11.2597 78.4918 11.2597C75.0118 11.2597 72.2964 13.3854 71.8007 16.914H84.9141Z" fill="white"/>
<path d="M1.84606 34.7213V38.0237C2.20779 37.4052 2.96628 37.0901 3.75977 37.0901C5.26506 37.0901 6.51364 38.187 6.51364 39.9257C6.51364 41.6527 5.24173 42.7729 3.7481 42.7729C2.98961 42.7729 2.20779 42.4345 1.84606 41.8161V42.1778C1.84606 42.4695 1.61268 42.7146 1.30928 42.7146C1.01756 42.7146 0.78418 42.4695 0.78418 42.1778V34.7213C0.78418 34.4296 1.01756 34.1846 1.30928 34.1846C1.61268 34.1846 1.84606 34.4296 1.84606 34.7213ZM1.85772 39.914C1.85772 41.0693 2.69789 41.7344 3.66641 41.7344C4.64661 41.7344 5.42843 40.9876 5.42843 39.914C5.42843 38.8288 4.64661 38.1287 3.66641 38.1287C2.79124 38.1287 1.85772 38.7471 1.85772 39.914Z" fill="#A3A9E8"/>
<path d="M8.06078 37.5102L9.56608 41.1509L11.083 37.4752C11.1881 37.2068 11.5031 37.0785 11.7715 37.1835C12.0516 37.2885 12.1683 37.6036 12.0516 37.872L9.06431 45.0134C8.95929 45.2818 8.6559 45.4101 8.37585 45.3051C8.11913 45.1884 8.01411 44.885 8.11913 44.6166L8.98263 42.4929L7.06892 37.8603C6.97557 37.5919 7.10393 37.2535 7.38398 37.1718C7.67571 37.0901 7.94409 37.2185 8.06078 37.5102Z" fill="#A3A9E8"/>
<path fill-rule="evenodd" clip-rule="evenodd" d="M60.9777 41.9079C60.9777 42.0357 60.927 42.1583 60.8366 42.2487C60.7462 42.339 60.6236 42.3898 60.4958 42.3898C60.368 42.3898 60.2454 42.339 60.155 42.2487C60.0646 42.1583 60.0138 42.0357 60.0138 41.9079V38.2109H59.4211C59.366 38.2133 59.3111 38.2045 59.2595 38.1851C59.2079 38.1657 59.1608 38.136 59.1211 38.0979C59.0813 38.0598 59.0496 38.014 59.028 37.9633C59.0063 37.9126 58.9952 37.8581 58.9952 37.803C58.9952 37.7479 59.0063 37.6934 59.028 37.6427C59.0496 37.592 59.0813 37.5462 59.1211 37.5081C59.1608 37.47 59.2079 37.4403 59.2595 37.4209C59.3111 37.4015 59.366 37.3927 59.4211 37.395H60.0138V36.844C60.0138 35.5416 60.5755 34.6514 61.9113 34.6514H62.0464C62.1069 34.6514 62.1668 34.6633 62.2227 34.6864C62.2786 34.7096 62.3293 34.7435 62.3721 34.7863C62.4149 34.8291 62.4488 34.8799 62.472 34.9358C62.4951 34.9917 62.5071 35.0516 62.5071 35.1121C62.5071 35.1726 62.4951 35.2325 62.472 35.2884C62.4488 35.3443 62.4149 35.395 62.3721 35.4378C62.3293 35.4806 62.2786 35.5145 62.2227 35.5377C62.1668 35.5608 62.1069 35.5728 62.0464 35.5728H61.909C61.1143 35.5728 60.9656 36.2088 60.9762 36.844V37.395H61.8346C61.8897 37.3927 61.9446 37.4015 61.9962 37.4209C62.0478 37.4403 62.0949 37.47 62.1347 37.5081C62.1744 37.5462 62.2061 37.592 62.2277 37.6427C62.2494 37.6934 62.2605 37.7479 62.2605 37.803C62.2605 37.8581 62.2494 37.9126 62.2277 37.9633C62.2061 38.014 62.1744 38.0598 62.1347 38.0979C62.0949 38.136 62.0478 38.1657 61.9962 38.1851C61.9446 38.2045 61.8897 38.2133 61.8346 38.2109H60.9777V41.9079ZM30.9747 38.1852C31.0262 38.2046 31.0812 38.2134 31.1363 38.211H31.6675V41.9079C31.6675 41.9712 31.68 42.0339 31.7042 42.0924C31.7284 42.1509 31.7639 42.204 31.8087 42.2487C31.8535 42.2935 31.9066 42.329 31.9651 42.3532C32.0235 42.3774 32.0862 42.3899 32.1495 42.3899C32.2128 42.3899 32.2754 42.3774 32.3339 42.3532C32.3924 42.329 32.4455 42.2935 32.4903 42.2487C32.535 42.204 32.5705 42.1509 32.5947 42.0924C32.619 42.0339 32.6314 41.9712 32.6314 41.9079V38.211H33.3304C33.3855 38.2134 33.4405 38.2046 33.492 38.1852C33.5436 38.1657 33.5907 38.1361 33.6305 38.098C33.6703 38.0598 33.7019 38.0141 33.7236 37.9634C33.7452 37.9127 33.7564 37.8582 33.7564 37.8031C33.7564 37.748 33.7452 37.6934 33.7236 37.6427C33.7019 37.5921 33.6703 37.5463 33.6305 37.5082C33.5907 37.4701 33.5436 37.4404 33.492 37.421C33.4405 37.4015 33.3855 37.3927 33.3304 37.3951H32.6314V35.9652C32.6314 35.9019 32.619 35.8393 32.5947 35.7808C32.5705 35.7223 32.535 35.6692 32.4903 35.6244C32.4455 35.5797 32.3924 35.5442 32.3339 35.52C32.2754 35.4957 32.2128 35.4833 32.1495 35.4833C32.0862 35.4833 32.0235 35.4957 31.9651 35.52C31.9066 35.5442 31.8535 35.5797 31.8087 35.6244C31.7639 35.6692 31.7284 35.7223 31.7042 35.7808C31.68 35.8393 31.6675 35.9019 31.6675 35.9652V37.3951H31.1363C31.0812 37.3927 31.0262 37.4015 30.9747 37.421C30.9231 37.4404 30.876 37.4701 30.8362 37.5082C30.7964 37.5463 30.7648 37.5921 30.7431 37.6427C30.7215 37.6934 30.7103 37.748 30.7103 37.8031C30.7103 37.8582 30.7215 37.9127 30.7431 37.9634C30.7648 38.0141 30.7964 38.0598 30.8362 38.098C30.876 38.1361 30.9231 38.1657 30.9747 38.1852ZM26.4453 40.2345H30.0883C30.1388 40.2352 30.1889 40.2258 30.2357 40.2069C30.2825 40.188 30.3251 40.16 30.3609 40.1244C30.3967 40.0889 30.4251 40.0466 30.4444 39.9999C30.4637 39.9532 30.4734 39.9032 30.4731 39.8527C30.4731 38.2847 29.4212 37.2882 28.0125 37.2882C26.6039 37.2882 25.4806 38.2839 25.4806 39.852C25.4806 41.42 26.6039 42.4477 28.0125 42.4477C28.8216 42.4477 29.5593 42.1517 30.0359 41.5369C30.1839 41.3676 30.1414 41.0716 29.9509 40.9335C29.7604 40.7954 29.4849 40.8591 29.3051 41.0603C28.9658 41.4314 28.6379 41.5794 28.0444 41.5794C27.208 41.5794 26.5614 41.0603 26.4453 40.2345ZM28.0118 38.158C28.8064 38.158 29.3999 38.6558 29.5161 39.4824H26.4445C26.5606 38.6558 27.1966 38.158 28.0118 38.158ZM38.265 41.5792C37.9364 42.1408 37.2161 42.4482 36.5277 42.4482C35.1715 42.4482 34.0171 41.4312 34.0171 39.8631C34.0171 38.2951 35.1715 37.2887 36.5277 37.2887C37.2161 37.2887 37.9364 37.5748 38.265 38.1365V37.8291C38.265 37.7658 38.2775 37.7031 38.3017 37.6447C38.3259 37.5862 38.3614 37.5331 38.4062 37.4883C38.4509 37.4435 38.5041 37.408 38.5625 37.3838C38.621 37.3596 38.6837 37.3471 38.747 37.3471C38.8102 37.3471 38.8729 37.3596 38.9314 37.3838C38.9899 37.408 39.043 37.4435 39.0877 37.4883C39.1325 37.5331 39.168 37.5862 39.1922 37.6447C39.2164 37.7031 39.2289 37.7658 39.2289 37.8291V41.9078C39.2289 41.9711 39.2164 42.0337 39.1922 42.0922C39.168 42.1507 39.1325 42.2038 39.0877 42.2486C39.043 42.2933 38.9899 42.3288 38.9314 42.353C38.8729 42.3773 38.8102 42.3897 38.747 42.3897C38.6837 42.3897 38.621 42.3773 38.5625 42.353C38.5041 42.3288 38.4509 42.2933 38.4062 42.2486C38.3614 42.2038 38.3259 42.1507 38.3017 42.0922C38.2775 42.0337 38.265 41.9711 38.265 41.9078V41.5792ZM36.612 38.2321C35.7225 38.2321 35.0022 38.8674 35.0022 39.8525C35.0022 40.8376 35.7225 41.5048 36.612 41.5048C37.5015 41.5048 38.2544 40.9014 38.2544 39.8525C38.2544 38.8036 37.4066 38.2321 36.612 38.2321ZM40.6318 37.4883C40.5414 37.5787 40.4907 37.7013 40.4907 37.8291L40.4884 41.9078C40.4884 42.0357 40.5392 42.1582 40.6295 42.2486C40.7199 42.339 40.8425 42.3898 40.9703 42.3898C41.0981 42.3898 41.2207 42.339 41.3111 42.2486C41.4015 42.1582 41.4523 42.0357 41.4523 41.9078V39.6727C41.4523 38.6344 42.1407 38.2109 42.829 38.2109C43.4757 38.2109 43.8992 38.7194 43.8992 39.5345V41.9094C43.8992 42.0372 43.95 42.1598 44.0403 42.2501C44.1307 42.3405 44.2533 42.3913 44.3811 42.3913C44.5089 42.3913 44.6315 42.3405 44.7219 42.2501C44.8123 42.1598 44.8631 42.0372 44.8631 41.9094V39.6742C44.8631 38.8462 45.361 38.2215 46.1769 38.2321C46.8865 38.2321 47.31 38.73 47.31 39.5452V41.9154C47.31 42.0432 47.3608 42.1658 47.4512 42.2562C47.5415 42.3466 47.6641 42.3974 47.7919 42.3974C47.9198 42.3974 48.0423 42.3466 48.1327 42.2562C48.2231 42.1658 48.2739 42.0432 48.2739 41.9154V39.4867C48.2739 38.0986 47.6067 37.2933 46.3674 37.2933C45.8801 37.2933 45.1067 37.4314 44.6513 38.3103C44.4236 37.7692 43.9865 37.4193 43.3611 37.3237C43.1829 37.2916 43.0014 37.2809 42.8207 37.2918C42.4184 37.3237 41.7194 37.5885 41.4545 38.1396V37.8291C41.4545 37.7013 41.4038 37.5787 41.3134 37.4883C41.223 37.398 41.1004 37.3472 40.9726 37.3472C40.8448 37.3472 40.7222 37.398 40.6318 37.4883ZM49.2067 39.8525C49.2067 38.2845 50.3823 37.2887 51.7872 37.2887C53.192 37.2887 54.3828 38.2845 54.3828 39.8525C54.3828 41.4205 53.1966 42.4482 51.7872 42.4482C50.3778 42.4482 49.2067 41.4205 49.2067 39.8525ZM53.4227 39.8525C53.4227 38.8567 52.6812 38.2321 51.791 38.2321C50.9007 38.2321 50.1599 38.8567 50.1599 39.8525C50.1599 40.8483 50.9015 41.5154 51.791 41.5154C52.6805 41.5154 53.4227 40.8589 53.4227 39.8525ZM56.3263 40.5409C56.3263 39.2279 56.7285 38.2108 57.6825 38.2108C57.7568 38.2093 57.8311 38.2129 57.9049 38.2215C58.2434 38.2534 58.5189 38.1858 58.572 37.8822C58.657 37.3646 58.0635 37.2887 57.7038 37.2887C57.0571 37.2887 56.5805 37.6386 56.3263 38.5076V37.8291C56.3263 37.7013 56.2755 37.5787 56.1851 37.4883C56.0947 37.3979 55.9721 37.3471 55.8443 37.3471C55.7165 37.3471 55.5939 37.3979 55.5035 37.4883C55.4131 37.5787 55.3624 37.7013 55.3624 37.8291V41.907C55.3624 42.0349 55.4131 42.1574 55.5035 42.2478C55.5939 42.3382 55.7165 42.389 55.8443 42.389C55.9721 42.389 56.0947 42.3382 56.1851 42.2478C56.2755 42.1574 56.3263 42.0349 56.3263 41.907V40.5409ZM24.4309 39.2481V39.33H24.4203V41.868C24.4203 42.022 24.3591 42.1697 24.2503 42.2786C24.1414 42.3875 23.9937 42.4486 23.8397 42.4486C23.6857 42.4486 23.538 42.3875 23.4292 42.2786C23.3203 42.1697 23.2591 42.022 23.2591 41.868V39.3429V39.2959C23.2539 39.1674 23.2333 39.0399 23.1976 38.9164C23.1806 38.8575 23.16 38.7998 23.1361 38.7433C23.1248 38.716 23.1119 38.6894 23.0982 38.6636C23.0856 38.6376 23.0717 38.6123 23.0565 38.5877C23.0018 38.4935 22.9324 38.4087 22.8508 38.3365C22.769 38.2636 22.6756 38.2048 22.5745 38.1627C22.4598 38.1155 22.3389 38.0851 22.2155 38.0724C22.1475 38.0647 22.0791 38.0609 22.0106 38.061C21.94 38.0618 21.8702 38.0648 21.8019 38.0716C21.6686 38.0839 21.5372 38.1114 21.4102 38.1536C21.2868 38.1947 21.1692 38.2516 21.0604 38.3229C20.9498 38.3955 20.8491 38.4819 20.7606 38.5802C20.7145 38.6302 20.6714 38.6829 20.6315 38.738L20.5822 38.8139C20.5944 38.8784 20.6035 38.9437 20.6111 39.0082C20.6202 39.0887 20.6262 39.1699 20.6293 39.2518V39.3141V41.8635C20.6293 42.0174 20.5681 42.1651 20.4592 42.274C20.3503 42.3829 20.2026 42.4441 20.0487 42.4441C19.8947 42.4441 19.747 42.3829 19.6381 42.274C19.5292 42.1651 19.468 42.0174 19.468 41.8635V39.3285V39.2906C19.4665 39.2427 19.4627 39.1889 19.4567 39.1388C19.4506 39.0887 19.4422 39.0371 19.4331 38.987C19.424 38.9369 19.4126 38.8875 19.3997 38.8405C19.375 38.7504 19.3423 38.6628 19.3018 38.5786C19.2821 38.5392 19.2616 38.5035 19.2404 38.4693L19.2237 38.4451L19.2185 38.4377L19.2185 38.4377L19.2185 38.4377C19.2144 38.4319 19.2105 38.4264 19.2062 38.4215C19.2008 38.4136 19.195 38.406 19.1887 38.3988L19.1796 38.3881V38.3828V38.3783C19.1696 38.3668 19.159 38.3559 19.1478 38.3456C19.1364 38.335 19.1235 38.3236 19.109 38.3122C19.0781 38.2887 19.0454 38.2677 19.0111 38.2492C18.933 38.2085 18.8501 38.1775 18.7645 38.1567C18.5815 38.1135 18.3917 38.1081 18.2066 38.1407C18.1619 38.1491 18.1178 38.1582 18.0761 38.1711C18.0343 38.184 17.9941 38.1976 17.9547 38.2136L17.9355 38.2218C17.9227 38.2272 17.9099 38.2325 17.8977 38.2386L17.8423 38.2652C17.8108 38.2816 17.781 38.2991 17.751 38.3168L17.7368 38.3251L17.6928 38.3517C17.5791 38.4208 17.4439 38.4454 17.3132 38.4208C17.1824 38.3963 17.0654 38.3243 16.9844 38.2187C16.9035 38.1132 16.8644 37.9814 16.8747 37.8488C16.885 37.7162 16.9439 37.592 17.0401 37.5001C17.1072 37.4357 17.1799 37.3773 17.2572 37.3256L17.2648 37.3203C17.3033 37.2937 17.337 37.2703 17.3748 37.2497C17.415 37.2277 17.4553 37.2072 17.497 37.1874C17.6592 37.1125 17.8304 37.0587 18.0063 37.0273C18.177 36.9969 18.3506 36.9852 18.5239 36.9924C18.6958 37.0002 18.8664 37.0257 19.0332 37.0683C19.118 37.0888 19.2016 37.1142 19.2836 37.1442C19.368 37.1757 19.4505 37.2116 19.531 37.252C19.6151 37.2945 19.6958 37.3435 19.7724 37.3984C19.8141 37.4265 19.8513 37.4561 19.89 37.4888C19.9295 37.5217 19.9673 37.5566 20.0031 37.5935L20.0168 37.6072L20.0289 37.6208L20.0532 37.6474C20.0628 37.6574 20.0716 37.6677 20.0804 37.6779L20.0805 37.678L20.0805 37.678C20.087 37.6856 20.0935 37.6931 20.1003 37.7005C20.1246 37.7294 20.1473 37.759 20.1693 37.7886C20.27 37.6853 20.3792 37.5906 20.4957 37.5055C20.671 37.3783 20.8617 37.274 21.0634 37.195C21.2617 37.118 21.4683 37.064 21.6789 37.0341C21.7821 37.019 21.8869 37.0045 21.9878 37.0045C22.0211 37.0045 22.0549 37.004 22.0891 37.0034L22.0892 37.0034C22.1588 37.0022 22.23 37.001 22.3013 37.0045C22.4105 37.0095 22.5192 37.0214 22.6269 37.0402C22.7388 37.0588 22.8491 37.0857 22.957 37.1207C23.0117 37.1381 23.0671 37.1586 23.121 37.1821C23.1748 37.2057 23.228 37.2307 23.2811 37.258C23.388 37.3136 23.4897 37.3789 23.5847 37.4531C23.6325 37.4896 23.6781 37.5289 23.7213 37.5707C23.7653 37.6117 23.8071 37.655 23.8465 37.699C23.886 37.743 23.9224 37.7893 23.9581 37.8364C23.9938 37.8834 24.0272 37.932 24.0575 37.9813C24.1185 38.0782 24.1718 38.1797 24.2169 38.2849C24.2614 38.3875 24.2989 38.493 24.3292 38.6007C24.3879 38.8118 24.422 39.0291 24.4309 39.2481ZM16.4289 42.4478C16.7596 42.4478 17.0277 42.1797 17.0277 41.849C17.0277 41.5183 16.7596 41.2502 16.4289 41.2502C16.0982 41.2502 15.8301 41.5183 15.8301 41.849C15.8301 42.1797 16.0982 42.4478 16.4289 42.4478ZM16.8456 40.8412C16.9574 40.7334 17.023 40.5863 17.0285 40.4311V39.0589C17.023 38.9037 16.9574 38.7566 16.8456 38.6488C16.7339 38.5409 16.5846 38.4806 16.4293 38.4806C16.274 38.4806 16.1247 38.5409 16.0129 38.6488C15.9012 38.7566 15.8356 38.9037 15.8301 39.0589V40.4311C15.8356 40.5863 15.9012 40.7334 16.0129 40.8412C16.1247 40.9491 16.274 41.0094 16.4293 41.0094C16.5846 41.0094 16.7339 40.9491 16.8456 40.8412Z" fill="#A3A9E8"/>
</svg>
