<svg width="14" height="15" viewBox="0 0 14 15" fill="none" xmlns="http://www.w3.org/2000/svg">
<path fill-rule="evenodd" clip-rule="evenodd" d="M13.5092 1.29943C14.1638 1.95398 14.1638 3.01521 13.5092 3.66975C12.8547 4.3243 11.7935 4.3243 11.1389 3.66975C10.4844 3.01521 10.4844 1.95398 11.1389 1.29943C11.7935 0.644886 12.8547 0.644886 13.5092 1.29943ZM2.94785 5.23448C4.38823 5.23448 5.56671 6.41297 5.56671 7.87953C5.56671 9.34609 4.41442 10.5246 2.94785 10.5246C1.48129 10.5246 0.302808 9.34609 0.302808 7.87953C0.302808 6.41297 1.50748 5.23448 2.94785 5.23448ZM12.7079 14.9065C13.6088 14.6939 14.1668 13.7912 13.9541 12.8903C13.7415 11.9894 12.8388 11.4314 11.9379 11.644C11.037 11.8567 10.479 12.7594 10.6916 13.6603C10.9043 14.5612 11.807 15.1192 12.7079 14.9065ZM6.83729 6.42646C6.54251 6.5975 6.16761 6.45868 5.99711 6.16359C5.82555 5.86668 5.89142 5.46929 6.18802 5.29718L9.30353 3.48942C9.58948 3.3235 9.95197 3.46903 10.1141 3.75712C10.2802 4.05202 10.2294 4.45818 9.93672 4.62802L6.83729 6.42646ZM10.12 11.9857C10.284 11.7088 10.2266 11.3406 9.94824 11.1791L6.81033 9.35834C6.51596 9.18754 6.14156 9.32617 5.97136 9.62089C5.79981 9.91796 5.86631 10.3156 6.16349 10.487L9.27463 12.2811C9.56713 12.4498 9.94784 12.2761 10.12 11.9857ZM12.3234 10.6817C11.9856 10.6817 11.6686 10.4593 11.6686 10.1216V5.61319C11.6686 5.29056 12.0007 5.05115 12.3234 5.05115C12.6611 5.05115 12.9781 5.27356 12.9781 5.61129V10.1197C12.9781 10.4423 12.646 10.6817 12.3234 10.6817Z" fill="url(#paint0_linear_212_45516)"/>
<defs>
<linearGradient id="paint0_linear_212_45516" x1="-3.02326" y1="-4.56006" x2="-3.25" y2="19.7537" gradientUnits="userSpaceOnUse">
<stop stop-color="#50E7FF"/>
<stop offset="0.515625" stop-color="#2060FE"/>
<stop offset="1" stop-color="#8E18FC"/>
</linearGradient>
</defs>
</svg>
