<svg width="24" height="25" viewBox="0 0 24 25" fill="none" xmlns="http://www.w3.org/2000/svg">
<path fill-rule="evenodd" clip-rule="evenodd" d="M18.7249 17.0833C20.5416 15.275 21.6666 12.7666 21.6666 9.99997C21.6666 4.47499 17.1916 0 11.6666 0C6.14165 0 1.66666 4.47499 1.66666 9.99997C1.66666 12.7667 2.79166 15.275 4.60837 17.0833H18.7249ZM20.8332 19.1667V20.4166H2.49999V19.1667C2.49999 18.7083 2.87499 18.3333 3.33335 18.3333H19.9999C20.4583 18.3333 20.8332 18.7083 20.8332 19.1667ZM22.552 21.6666H0.781248C0.349776 21.6666 0 22.0164 0 22.4479V24.2187C0 24.6502 0.349776 25 0.781248 25H22.552C22.9835 25 23.3333 24.6502 23.3333 24.2187V22.4479C23.3333 22.0164 22.9835 21.6666 22.552 21.6666Z" fill="url(#paint0_linear_212_45614)"/>
<defs>
<linearGradient id="paint0_linear_212_45614" x1="4.7746" y1="-1.61261e-09" x2="5.07677" y2="24.4313" gradientUnits="userSpaceOnUse">
<stop stop-color="#50E7FF"/>
<stop offset="0.495282" stop-color="#2060FE"/>
<stop offset="1" stop-color="#8E18FC"/>
</linearGradient>
</defs>
</svg>
