<svg width="23" height="25" viewBox="0 0 23 25" fill="none" xmlns="http://www.w3.org/2000/svg">
<path fill-rule="evenodd" clip-rule="evenodd" d="M20.4545 6.81818H2.27273C1.02273 6.81818 0 5.79545 0 4.54545V2.27273C0 1.02273 1.02273 0 2.27273 0H20.4545C21.7057 0 22.7273 1.02273 22.7273 2.27273V4.54545C22.7273 5.79545 21.7057 6.81818 20.4545 6.81818ZM20.4545 2.27273H18.1818V4.54545H20.4545V2.27273ZM2.27273 15.9094H20.4545C21.7045 15.9094 22.7273 14.8866 22.7273 13.6366V11.3639C22.7273 10.1139 21.7057 9.09119 20.4545 9.09119H2.27273C1.02273 9.09119 0 10.1139 0 11.3639V13.6366C0 14.8866 1.02273 15.9094 2.27273 15.9094ZM18.1818 11.3639H20.4545V13.6366H18.1818V11.3639ZM2.27273 24.9995H20.4545C21.7045 24.9995 22.7273 23.9768 22.7273 22.7268V20.4541C22.7273 19.2041 21.7045 18.1814 20.4545 18.1814H2.27273C1.02273 18.1814 0 19.2041 0 20.4541V22.7268C0 23.9768 1.02273 24.9995 2.27273 24.9995ZM18.1818 20.4541H20.4545V22.7268H18.1818V20.4541Z" fill="url(#paint0_linear_212_45631)"/>
<defs>
<linearGradient id="paint0_linear_212_45631" x1="4.65059" y1="-1.61258e-09" x2="4.9608" y2="24.4307" gradientUnits="userSpaceOnUse">
<stop stop-color="#50E7FF"/>
<stop offset="0.495282" stop-color="#2060FE"/>
<stop offset="1" stop-color="#8E18FC"/>
</linearGradient>
</defs>
</svg>
