<svg width="22" height="25" viewBox="0 0 22 25" fill="none" xmlns="http://www.w3.org/2000/svg">
<path fill-rule="evenodd" clip-rule="evenodd" d="M11.0001 3.35214C11.9258 3.35214 12.6762 2.60174 12.6762 1.67607C12.6762 0.750402 11.9258 0 11.0001 0C10.0744 0 9.32403 0.750402 9.32403 1.67607C9.32403 2.60174 10.0744 3.35214 11.0001 3.35214ZM13.5666 12.4396C13.5666 10.973 12.3881 9.79454 10.9477 9.79454C9.50734 9.79454 8.30267 10.973 8.30267 12.4396C8.30267 13.9061 9.48115 15.0846 10.9477 15.0846C12.4143 15.0846 13.5666 13.9061 13.5666 12.4396ZM21.5091 5.85949C22.1636 6.51404 22.1636 7.57526 21.5091 8.22981C20.8545 8.88436 19.7933 8.88436 19.1388 8.22981C18.4842 7.57526 18.4842 6.51404 19.1388 5.85949C19.7933 5.20494 20.8545 5.20494 21.5091 5.85949ZM20.7077 19.4666C21.6087 19.254 22.1666 18.3512 21.954 17.4503C21.7414 16.5494 20.8386 15.9915 19.9377 16.2041C19.0368 16.4167 18.4789 17.3194 18.6915 18.2203C18.9041 19.1213 19.8068 19.6792 20.7077 19.4666ZM3.3077 6.65986C3.52033 7.56077 2.96237 8.46348 2.06146 8.67612C1.16054 8.88875 0.257833 8.33079 0.0451983 7.42988C-0.167437 6.52896 0.390524 5.62626 1.29144 5.41362C2.19235 5.20098 3.09506 5.75894 3.3077 6.65986ZM2.86198 19.0192C3.51652 18.3646 3.51652 17.3034 2.86198 16.6489C2.20743 15.9943 1.1462 15.9943 0.491656 16.6489C-0.162891 17.3034 -0.162891 18.3646 0.491656 19.0192C1.1462 19.6737 2.20743 19.6737 2.86198 19.0192ZM11.0001 4.24255C11.3378 4.24255 11.6548 4.46495 11.6548 4.80269V8.29601C11.6548 8.66184 11.3135 8.93031 10.9477 8.93031C10.6283 8.93031 10.3454 8.69694 10.3454 8.37756V4.80136C10.3454 4.4643 10.6651 4.20533 11.0001 4.24255ZM7.89153 10.7C8.0608 10.399 7.99325 9.9973 7.69439 9.82437L4.67029 8.07458C4.38437 7.90914 4.02236 8.05475 3.86039 8.34266C3.69435 8.63782 3.74542 9.04437 4.03855 9.21398L7.06949 10.9677C7.35853 11.135 7.72784 10.991 7.89153 10.7ZM18.1126 5.7575C17.9438 6.04433 17.5746 6.19883 17.2861 6.03289L13.3998 3.79777C13.1063 3.62899 13.0506 3.22758 13.2151 2.93169C13.3724 2.64871 13.7317 2.48601 14.0124 2.64742L17.9488 4.91138C18.2349 5.07592 18.2801 5.4731 18.1126 5.7575ZM14.1879 9.85724C13.8913 10.0293 13.8254 10.4267 13.997 10.7237C14.1675 11.0187 14.5424 11.1576 14.8371 10.9865L17.9366 9.18808C18.2293 9.01824 18.28 8.61208 18.114 8.31718C17.9518 8.02909 17.5893 7.88356 17.3034 8.04948L14.1879 9.85724ZM13.9712 14.181C14.1414 13.8862 14.5158 13.7476 14.8102 13.9184L17.9481 15.7392C18.2265 15.9007 18.2839 16.2688 18.1198 16.5457C17.9477 16.8362 17.567 17.0099 17.2745 16.8412L14.1633 15.047C13.8662 14.8757 13.7997 14.478 13.9712 14.181ZM10.4081 15.9306C10.3748 15.9264 10.3454 15.9523 10.3454 15.9859V20.1027C10.3454 20.4404 10.6624 20.6628 11.0001 20.6628C11.3359 20.6628 11.6548 20.4161 11.6548 20.0802V16.6093C11.6548 16.2435 11.3135 15.975 10.9477 15.975C10.7594 15.975 10.5922 15.9539 10.4081 15.9306ZM4.72214 16.8064C4.43627 16.971 4.07504 16.8253 3.91343 16.5377C3.74734 16.2421 3.79895 15.8349 4.09277 15.6657L7.07905 13.9457C7.37089 13.7776 7.74611 13.9299 7.91644 14.2205C8.08674 14.511 8.02571 14.9037 7.73392 15.0718L4.72214 16.8064ZM20.3232 9.61121C20.0006 9.61121 19.6685 9.85061 19.6685 10.1732V14.6816C19.6685 15.0194 19.9855 15.2418 20.3232 15.2418C20.6459 15.2418 20.9779 15.0024 20.9779 14.6797V10.1713C20.9779 9.83361 20.661 9.61121 20.3232 9.61121ZM14.0189 22.228C13.7331 22.3924 13.3721 22.2466 13.2106 21.9591C13.0445 21.6633 13.0962 21.256 13.3903 21.0869L17.3044 18.8357C17.5903 18.6713 17.9512 18.8171 18.1127 19.1046C18.2788 19.4004 18.2271 19.8077 17.933 19.9768L14.0189 22.228ZM3.89192 19.09C3.72745 19.3859 3.7832 19.7873 4.07666 19.9561L7.96296 22.1913C8.25148 22.3572 8.62064 22.2027 8.78949 21.9159C8.95692 21.6315 8.91175 21.2343 8.62567 21.0697L4.68923 18.8058C4.40858 18.6444 4.04923 18.8071 3.89192 19.09ZM7.98024 2.65467C8.26619 2.48873 8.6287 2.63426 8.79088 2.92236C8.95689 3.21725 8.90617 3.62339 8.61348 3.79324L4.69681 6.06613C4.41086 6.23207 4.04835 6.08654 3.88616 5.79844C3.72015 5.50355 3.77087 5.09741 4.06356 4.92756L7.98024 2.65467ZM1.71189 15.2461C2.01637 15.2839 2.33167 15.0454 2.33167 14.7386V9.50647C2.33167 9.50646 2.33167 9.50646 2.33166 9.50646C2.12216 9.55883 1.91265 9.61121 1.67696 9.61121C1.35433 9.61121 1.02224 9.85061 1.02224 10.1732V14.6816C1.02224 15.0193 1.33923 15.2418 1.67696 15.2418L1.71189 15.2461ZM12.6762 23.2031C12.6762 24.1288 11.9258 24.8792 11.0001 24.8792C10.0744 24.8792 9.32403 24.1288 9.32403 23.2031C9.32403 22.2774 10.0744 21.527 11.0001 21.527C11.9258 21.527 12.6762 22.2774 12.6762 23.2031Z" fill="url(#paint0_linear_212_45495)"/>
<defs>
<linearGradient id="paint0_linear_212_45495" x1="4.97674" y1="-4.0087e-09" x2="4.75" y2="24.3137" gradientUnits="userSpaceOnUse">
<stop stop-color="#50E7FF"/>
<stop offset="0.515625" stop-color="#2060FE"/>
<stop offset="1" stop-color="#8E18FC"/>
</linearGradient>
</defs>
</svg>
